<?xml version="1.0" encoding="utf-8"?>
<svg id="master-artboard" viewBox="0 0 1400 980" version="1.1" xmlns="http://www.w3.org/2000/svg" x="0px" y="0px" style="enable-background:new 0 0 1400 980;" width="140px" height="98px"><defs><style id="ee-google-fonts">@import url(https://fonts.googleapis.com/css?family=Rubik:300,300italic,400,400italic,500,500italic,700,700italic,900,900italic);</style></defs>


<path class="st1" d="M636.3,463.7c-30.6,0-55.4,24.9-55.4,55.4c0,57.2,58.9,108,105.2,108l0,0c1.5,0,2.9-0.1,4.3-0.2&#10;&#9;c0.7,0,1.2-0.6,1.2-1.3V519.1C691.7,488.6,666.9,463.7,636.3,463.7z" style="fill: rgb(232, 56, 74); stroke: rgb(107, 61, 52); stroke-width: 4;" transform="matrix(1.2658737897872925, 0, 0, 1.2658737897872925, -191.00262850776582, -209.0258174977912)"/>
<path class="st1" d="M712.7,554.2c-0.2-0.7-0.9-1.1-1.6-0.9c-0.7,0.2-1.1,0.9-1,1.6l-2.8,0.6c-0.2-1.3-0.3-2.2-0.4-2.6&#10;&#9;c-0.1-0.7-0.8-1.2-1.5-1.1c-0.7,0.1-1.2,0.8-1.1,1.5l-5.9,0.9c-0.1-0.5-0.4-0.9-0.9-1.1c0-0.2,0-0.4,0-0.6c-0.1-0.7-0.7-1.3-1.4-1.2&#10;&#9;s-1.2,0.6-1.2,1.3H689c0-0.7-0.5-1.3-1.2-1.3c-0.8-0.1-1.4,0.5-1.4,1.2c0,0.1,0,0.2,0,0.4c-0.4,0.2-0.7,0.7-0.8,1.2l-5.9-0.9&#10;&#9;c0.1-0.7-0.4-1.4-1.1-1.5c-0.7-0.1-1.4,0.4-1.5,1.1c-0.1,0.4-0.2,1.2-0.4,2.5l-2.4-0.5c0.2-0.7-0.3-1.4-1-1.6&#10;&#9;c-0.7-0.2-1.5,0.2-1.6,0.9c-1.9,7.2-47.4,176.9-34.1,198.9c0.9,1.5,2.1,2.4,3.5,2.7c0.3,0.1,0.7,0.1,1,0.1c1.1,0,2.1-0.4,3.2-1.1&#10;&#9;c4.8-3.5,9.5-16.6,13.8-34.4c-0.1,16.1,1.2,28.3,4.7,33c1.1,1.4,2.3,2.3,3.7,2.5c0.2,0,0.5,0.1,0.7,0.1c1.2,0,2.4-0.5,3.4-1.5&#10;&#9;c4.1-3.6,7.2-15.1,9.5-30.9c1.2,15.2,3.4,26.5,7,30.5c1.2,1.3,2.5,1.9,3.9,1.9s2.8-0.6,3.9-1.9c3.7-4,5.9-15.5,7.1-31.1&#10;&#9;c2.4,16.2,5.5,28,9.6,31.6c1.1,0.9,2.2,1.4,3.4,1.4c0.2,0,0.5,0,0.7-0.1c1.4-0.2,2.7-1.1,3.7-2.5c3.6-4.9,4.8-17.8,4.7-34.8&#10;&#9;c4.4,18.8,9.2,32.6,14.2,36.2c1,0.8,2.1,1.1,3.2,1.1c0.3,0,0.7,0,1-0.1c1.4-0.3,2.6-1.2,3.5-2.7&#10;&#9;C760.1,731.1,714.6,561.4,712.7,554.2z" style="fill: rgb(232, 56, 74); stroke: rgb(107, 61, 52); stroke-width: 4;" transform="matrix(1.2658737897872925, 0, 0, 1.2658737897872925, -191.00262850776582, -209.0258174977912)"/>
<path class="st2" d="M437.9,592.8c0.8-1,1.9-1.1,3.2-1.1c20.8,0,41.6,0,62.4,0c0.5,0,1,0,1.4,0c0.3,0,0.6,0.1,0.7-0.2&#10;&#9;s-0.2-0.4-0.4-0.6c-9.8-7.2-9.9-22.3-4.5-32.1c1.1-2,2.3-3.9,3.7-5.7c3.8-5,6.8-10.5,9.3-16.3c0.4-1,0.8-1.9,2.1-2&#10;&#9;c1.2-0.1,1.8,0.8,2.3,1.7c3.5,5.7,7.5,10.9,12.3,15.6c5.8,5.8,9.1,12.7,9.4,20.9c0.3,7-2,12.9-7.6,17.4c-0.4,0.3-1.1,0.5-0.9,0.9&#10;&#9;c0.2,0.5,0.9,0.3,1.4,0.3c30.9,0,61.8,0,92.7,0c0.2,0,0.3,0,0.5,0c0.4-0.1,1,0.2,1.2-0.3s-0.3-0.7-0.6-1c-7-8.6-12-18.2-15.2-28.8&#10;&#9;c-3.6-12.2-4.1-24.7-2.6-37.2c2.2-18.3,9.8-34.3,20.4-49.1c3.6-5.1,7.4-10,10.5-15.4c2.5-4.2,4.5-8.6,4.5-13.7&#10;&#9;c0-2.4-0.5-4.5-2.4-6.4c-2.7-2.7-4.7-5.8-6.4-9.2c-0.5-0.9-0.9-1-1.8-0.7c-3.5,1.5-7,2.9-10.6,4.3c-1.7,0.7-2.6,0.3-3.2-1.3&#10;&#9;c-8.5-21.4-7.9-42.1,4.8-61.7c5.3-8.2,12.6-14.4,21.3-18.9c10.5-5.4,21.5-8.7,33.4-8.4c4,0.1,7.9,0.5,11.8,1.4&#10;&#9;c1.2,0.3,1.9,0.1,2.6-0.8c7.9-8.9,15.8-17.8,23.8-26.6c0.2-0.2,0.4-0.4,0.5-0.6c0.7-0.8,1.4-1.3,2.5-0.9s1.3,1.3,1.3,2.3&#10;&#9;c-0.1,6.5-0.9,12.8-2.4,19.1c-0.3,1.1-0.8,2.1-0.8,3.2c1.2-0.3,2-1.1,3-1.7c4.9-3.2,9.8-6.5,14.7-9.8c1-0.7,1.9-1.2,3.1-0.4&#10;&#9;c1,0.8,0.8,1.8,0.5,2.9c-1.8,6.2-4.2,12.1-7.3,17.8c-0.2,0.3-0.6,0.6-0.3,0.9s0.7-0.1,1-0.3c5.1-2.5,10.2-5,15.3-7.5&#10;&#9;c0.4-0.2,0.9-0.5,1.3-0.6c0.8-0.4,1.7-0.4,2.4,0.2c0.8,0.7,0.8,1.6,0.4,2.5c-4.7,10.7-10.5,20.7-20.2,27.7c-1,0.7-0.6,1.2-0.2,1.9&#10;&#9;c5.5,9.6,8.2,19.9,7.8,31.1c-0.4,11.4-3.7,21.9-10.3,31.3c-3.1,4.5-3.6,9.2-2.3,14.2c1.2,4.9,4,9.1,6.8,13.2&#10;&#9;c5,7.4,10.4,14.4,14.9,22.1c8.7,14.7,13.3,30.6,13.8,47.8c0.6,20.9-5.4,39.6-18.4,56c-0.3,0.4-0.9,0.7-0.7,1.2s0.9,0.2,1.3,0.2&#10;&#9;c40.6,0,81.2,0,121.8,0c0.4,0,1.1,0.2,1.3-0.2c0.1-0.5-0.6-0.6-0.9-0.9c-17.1-11.8-34.2-23.6-51.3-35.5c-2.4-1.6-2.5-2.3-0.8-4.7&#10;&#9;c2.5-3.4,4.9-6.9,7.4-10.3c1.2-1.7,2.1-1.9,3.9-0.6c8,5.5,16,11.1,24.1,16.6c0.4,0.3,0.8,0.5,1.2,0.8c0.1,0.1,0.4,0.2,0.4,0.2&#10;&#9;c0.2-0.2,0.1-0.4,0-0.6c-5.1-11.4,1.4-23.8,14.8-29.1c3.7-1.5,7.6-2.2,11.6-2.1c7.2,0.2,14.3-0.5,21.4-2c2.1-0.4,3.3,1,2.4,2.9&#10;&#9;c-3,7-4.8,14.3-6.3,21.7c-1.5,7.8-5.7,13.9-12.1,18.5c-3.3,2.4-7.1,3.8-11.2,3.9c-0.3,0-0.8-0.2-1,0.2c-0.1,0.3,0.4,0.5,0.6,0.6&#10;&#9;c9.7,6.7,19.3,13.3,29,20c0.7,0.5,1.5,0.5,2.3,0.5c18.3,0,36.6,0,54.9,0c3.3,0,3.6,0.3,3.6,3.6c0,4.2,0,8.4,0,12.5&#10;&#9;c0,2-0.7,2.7-2.7,2.7c-6.8,0-13.6,0-20.4,0c-0.4,0-0.9-0.2-1,0.2s0.4,0.5,0.7,0.7c6.3,5.6,7.8,12.6,5.8,20.5c-1.3,5-2.6,9.9-3,15.1&#10;&#9;c-0.1,1.8-1.9,2.6-3.3,1.5c-4.3-3.6-9.2-6.2-14.1-8.9c-4-2.3-6.8-5.7-8.5-10c-2.9-7-0.8-13.8,5.3-18.1c0.3-0.2,0.9-0.3,0.8-0.7&#10;&#9;c-0.1-0.4-0.7-0.2-1-0.2c-22.7,0-45.5,0-68.2,0c-0.4,0-0.9,0-1,0.1c-0.2,0.3,0.3,0.5,0.5,0.7c6.8,5.7,9.1,13.3,9.1,21.8&#10;&#9;c0,3.8-1,7.4-2.2,11c-1.9,5.9-2.8,12-3.3,18.1c-0.1,1-0.3,1.8-1.2,2.3c-0.9,0.4-1.7,0.1-2.5-0.5c-5.3-4.4-11.1-8.2-17.4-11.2&#10;&#9;c-7.6-3.7-13-9.5-15.8-17.6c-3.1-9.1-0.2-17.9,7.5-23.6c0.3-0.2,1-0.4,0.8-0.8c-0.1-0.4-0.8-0.1-1.2-0.1c-80,0-160,0-240,0&#10;&#9;c-0.6,0-1.2,0-1.8,0.4c-4.9,3.6-9.9,7.1-14.9,10.7c-0.2,0.2-0.7,0.3-0.5,0.7c0,0.1,0.5,0.1,0.7,0.1c9.8,0.2,16.9,6.7,19.7,15.8&#10;&#9;c1.9,6.2,1.9,12.5-0.1,18.7c-2.3,6.9-3.8,13.9-4.5,21.2c-0.2,2-2,2.8-3.5,1.5c-5.9-5.1-12.5-8.9-19.3-12.7&#10;&#9;c-8.3-4.7-13.3-11.9-14.7-21.5c-0.3-2.4-0.1-4.8,0.5-7.2c0.1-0.3,0.5-0.7,0.1-1c-0.1-0.1-0.5,0.3-0.8,0.4&#10;&#9;c-4.8,3.4-9.6,6.9-14.4,10.3c-2.2,1.6-2.9,1.5-4.4-0.7c-2.5-3.4-4.9-6.9-7.4-10.3c-1.4-1.9-1.3-2.7,0.7-4.1c9.7-7,19.5-14,29.2-21&#10;&#9;c0.3-0.2,0.6-0.4,0.9-0.7c0.1-0.1,0.4-0.3,0.3-0.5c0-0.3-0.3-0.2-0.5-0.2c-0.4,0-0.9,0-1.3,0c-36.3,0-72.6,0-108.9,0&#10;&#9;c-1.3,0-2.5-0.1-3.2-1.3C437.9,603.7,437.9,598.3,437.9,592.8z" style="fill: rgb(107, 61, 52);" transform="matrix(1.2658737897872925, 0, 0, 1.2658737897872925, -191.00262850776582, -209.0258174977912)"/>
<path class="st3" d="M685.4,591.7c16.9,0,33.8,0,50.7,0c1.4,0,2.3-0.4,3.2-1.4c11.2-12.8,17.8-27.7,19.4-44.6&#10;&#9;c1.8-19.1-2-37.2-11.2-54.1c-4.6-8.4-10.4-16-15.8-23.8c-3.1-4.5-6.1-9.1-7.7-14.4c-2-6.6-1.5-12.9,2.6-18.8&#10;&#9;c6.4-9.1,9.5-19.4,9.6-30.5c0.1-10.7-3-20.6-8.7-29.6c-1.2-1.9-1.1-2.8,0.9-3.9c1.6-0.9,3.1-2,4.4-3.2c5.7-5,9.7-11.2,13.3-17.8&#10;&#9;c0.1-0.3,0.5-0.6,0.2-0.8c-0.3-0.3-0.6,0.1-0.9,0.2c-6.1,3-12.2,6-18.3,9c-1.1,0.5-2.2,0.9-3-0.2c-0.8-1-0.5-2.1,0.3-3&#10;&#9;c2.1-2.5,3.8-5.2,5.3-8.1c1.7-3.2,3.2-6.5,4.4-10c0.1-0.2,0.2-0.6,0.1-0.7c-0.3-0.3-0.5,0.1-0.8,0.2c-0.3,0.2-0.6,0.4-0.9,0.6&#10;&#9;c-5.6,3.7-11.2,7.5-16.9,11.2c-0.9,0.6-1.9,0.9-2.8,0.2c-0.9-0.7-0.9-1.6-0.5-2.6c2.9-6.4,4.3-13.2,5.1-20.2c0-0.4,0.4-1,0-1.2&#10;&#9;s-0.6,0.4-0.9,0.7c-6.9,7.7-13.8,15.3-20.5,23c-1.4,1.6-2.6,1.9-4.6,1.4c-11.4-2.6-22.5-2-33.5,2c-0.5,0.2-1.2,0.2-1.3,1&#10;&#9;c-0.1,1.3-0.3,2.5,0.3,3.9c13.4,30.6,26.7,61.2,40,91.8c1.2,2.7,0.9,3.4-1.8,4.3c-16.2,5.8-31.5,4.1-45.7-5.8&#10;&#9;c-0.3-0.2-0.6-0.6-0.9-0.5c-0.4,0.2-0.2,0.7-0.2,1c-0.1,0.9-0.1,1.7-0.2,2.6c-0.9,5.6-3.5,10.5-6.7,15.2&#10;&#9;c-4.1,6.1-8.5,12.1-12.6,18.3c-10.6,15.8-16.4,33.1-16.8,52.2c-0.4,20.9,6.2,39.2,19.8,55.1c0.8,1,1.7,1.4,3,1.4&#10;&#9;C651.6,591.7,668.5,591.7,685.4,591.7z" style="fill: rgb(237, 192, 98);" transform="matrix(1.2658737897872925, 0, 0, 1.2658737897872925, -191.00262850776582, -209.0258174977912)"/>
<path class="st2" d="M700,595.7c-85.1,0-170.3,0-255.4,0c-0.4,0-0.9,0.1-1.3,0c-1.1-0.2-1.3,0.4-1.3,1.4c0.1,2.3,0,4.5,0,6.8&#10;&#9;c0,3-0.4,2.6,2.6,2.6c170.3,0,340.7,0,511,0c0.3,0,0.6,0,1,0c1.2,0.2,1.6-0.3,1.6-1.5c-0.1-2.4,0-4.7,0-7.1c0-2.6,0.3-2.2-2.2-2.2&#10;&#9;C870.6,595.7,785.3,595.7,700,595.7z" style="fill: rgb(107, 61, 52);" transform="matrix(1.2658737897872925, 0, 0, 1.2658737897872925, -191.00262850776582, -209.0258174977912)"/>
<path class="st4" d="M618.1,403.2c0,9.9,1.6,18.1,4.1,25.1c0.5,1.3,1,1.4,2.2,0.9c16.4-6.7,32.8-13.4,49.2-20c1.1-0.4,1.4-0.8,0.9-2&#10;&#9;c-7.5-17.2-15-34.3-22.4-51.5c-0.6-1.4-1.1-1.6-2.5-0.9C628.8,365.4,619,382.9,618.1,403.2z" style="fill: rgb(36, 154, 75);" transform="matrix(1.2658737897872925, 0, 0, 1.2658737897872925, -191.00262850776582, -209.0258174977912)"/>
<path class="st4" d="M677.1,451.8c4.8-0.1,9.5-0.9,14.1-2.3c1.2-0.4,1.4-0.8,0.9-2c-4.9-11.2-9.8-22.4-14.7-33.7&#10;&#9;c-0.5-1.2-0.9-1.5-2.2-0.9c-11.7,4.8-23.5,9.6-35.2,14.3c-1.3,0.5-1.4,1-0.7,2.2C647.7,443.8,660.5,451,677.1,451.8z" style="fill: rgb(36, 154, 75);" transform="matrix(1.2658737897872925, 0, 0, 1.2658737897872925, -191.00262850776582, -209.0258174977912)"/>
<path class="st4" d="M839.4,611.1c-1-0.1-2.1,0.2-3.2,0.3c-1.1,0.1-1.4,0.4-0.8,1.6c2.2,3.8,4.1,7.7,5.7,11.7&#10;&#9;c1.8,4.4,3.4,8.8,4.4,13.4c0.3,1.2,0,2.3-1.4,2.7c-1.2,0.4-2.1-0.3-2.6-1.8c-0.2-0.8-0.4-1.7-0.7-2.5c-2.2-7.8-5.5-15.2-9.5-22.2&#10;&#9;c-0.3-0.6-0.6-1-1.4-0.5c-5.7,3-9.4,9.8-8.5,16.1c1.2,8.1,5.7,14.1,12.7,18.1c5.6,3.2,11.5,6,16.6,10.1c0.7,0.6,1,0.4,1.1-0.5&#10;&#9;c0.5-5.7,1.9-11.2,3.6-16.6c2-6.1,1.9-12.2-0.4-18.3C852.5,615.5,846.6,611.1,839.4,611.1z" style="fill: rgb(36, 154, 75);" transform="matrix(1.2658737897872925, 0, 0, 1.2658737897872925, -191.00262850776582, -209.0258174977912)"/>
<path class="st4" d="M551.1,643.7c0.1,0.6,0.1,1.6,0.3,2.6c1.6,7.2,5.5,12.8,11.7,16.5c5.7,3.4,11.8,6.4,17,10.7&#10;&#9;c0.5,0.4,0.9,0.6,1-0.4c0.7-6.4,2.6-12.5,4.4-18.6c1.8-6.1,1.3-12.1-1.3-17.9c-3.4-7.9-11.1-11.7-19.3-9.8c-1.2,0.3-1.7,0.6-1.3,2&#10;&#9;c1.9,6.2,4,12.2,6.9,17.9c1,2.1,2.2,4,3.3,6c0.8,1.5,0.7,2.6-0.4,3.2c-1.1,0.7-2.2,0.3-3.1-1.2c-0.3-0.5-0.6-1-0.9-1.5&#10;&#9;c-4.2-7.2-7.3-14.9-9.6-22.9c-0.4-1.3-0.8-1.3-1.7-0.6C553.7,633.2,551.1,637.6,551.1,643.7z" style="fill: rgb(36, 154, 75);" transform="matrix(1.2658737897872925, 0, 0, 1.2658737897872925, -191.00262850776582, -209.0258174977912)"/>
<path class="st4" d="M854.5,548.4c0,2.8,0.8,5.4,2,7.9c0.5,0.9,0.7,1.2,1.6,0.3c5-5.3,10.6-10,16.6-14.1c1.6-1,3.1-2.1,4.8-3&#10;&#9;c1-0.6,2.1-0.4,2.8,0.7c0.6,1.1,0.3,2.1-0.8,2.8c-0.3,0.2-0.5,0.3-0.8,0.5c-7.6,4.5-14.2,10.2-20.3,16.5c-0.6,0.6-0.6,0.9,0,1.5&#10;&#9;c4.7,4.3,10.1,6.2,16.3,4c8.3-2.9,13-9.1,15.1-17.4c1.6-6.4,2.5-13,5.1-19.2c0.3-0.8,0.2-1-0.7-0.8c-5.7,1-11.5,1.3-17.3,1.2&#10;&#9;c-5.9-0.1-11.3,1.4-16.2,4.9C857.8,537.6,854.6,542.2,854.5,548.4z" style="fill: rgb(36, 154, 75);" transform="matrix(1.2658737897872925, 0, 0, 1.2658737897872925, -191.00262850776582, -209.0258174977912)"/>
<path class="st4" d="M522.5,582.3c0,2.4,0,4.7,0,7.1c0,1,0.2,1.2,1.2,0.9c6.4-1.9,10.5-6,11.7-12.5c1.4-8.1-1.1-15.2-6.5-21.2&#10;&#9;c-4.2-4.7-8.6-9.2-12.1-14.6c-0.5-0.8-0.8-0.6-1.1,0.1c-2.6,5.6-6.1,10.7-9.7,15.7c-3.8,5.3-5.2,11.2-4.8,17.6&#10;&#9;c0.6,8.7,7.1,15,15.7,15.5c1,0.1,1.3-0.1,1.4-1.1c0.2-5.7,0.1-11.5-0.6-17.2c-0.4-3.2-0.9-6.4-1.7-9.5c-0.2-1-0.1-1.9,0.9-2.5&#10;&#9;c0.8-0.4,1.6-0.3,2.3,0.2c0.6,0.5,0.7,1.3,0.9,2C521.7,569.3,522.4,575.8,522.5,582.3z" style="fill: rgb(36, 154, 75);" transform="matrix(1.2658737897872925, 0, 0, 1.2658737897872925, -191.00262850776582, -209.0258174977912)"/>
<path class="st2" d="M885,591.7c2.6,0,5.3,0,7.9,0c0.5,0,1.1,0.3,1.3-0.2c0.1-0.5-0.6-0.7-0.9-0.9c-8.8-6.1-17.7-12.2-26.6-18.4&#10;&#9;c-13.4-9.3-26.9-18.6-40.3-27.9c-1-0.7-1.5-0.6-2.2,0.4c-1.3,2.1-2.8,4.1-4.3,6c-0.9,1.2-0.8,1.7,0.4,2.5&#10;&#9;c16.4,11.2,32.8,22.4,49,33.9c4.6,3.3,9.2,5.4,14.9,4.5C884.5,591.6,884.7,591.7,885,591.7z" style="fill: rgb(107, 61, 52);" transform="matrix(1.2658737897872925, 0, 0, 1.2658737897872925, -191.00262850776582, -209.0258174977912)"/>
<path class="st2" d="M577.3,610.8c-0.2-0.5-0.6-0.3-0.9-0.3c-5.4,0-10.7,0-16.1,0c-0.6,0-1.1,0.2-1.6,0.5c-11,7.9-22,15.8-33,23.7&#10;&#9;c-0.7,0.5-0.9,0.9-0.3,1.6c1.7,2.2,3.3,4.5,4.9,6.8c0.6,0.8,1,0.9,1.8,0.3c2.6-1.9,5.2-3.8,7.8-5.6c12.1-8.7,24.3-17.5,36.4-26.2&#10;&#9;C576.5,611.4,576.8,611.1,577.3,610.8z" style="fill: rgb(107, 61, 52);" transform="matrix(1.2658737897872925, 0, 0, 1.2658737897872925, -191.00262850776582, -209.0258174977912)"/>
<path class="st4" d="M941.2,626.8c0-3.4-0.6-6.1-2-8.6c-2.2-3.8-5.5-5.8-9.9-5.6c-1.2,0.1-1.4,0.4-0.8,1.5c2.3,4.1,4.1,8.5,5.5,13&#10;&#9;c0.3,1.1,0.7,2.3,0.9,3.4c0.2,1.1-0.3,1.9-1.4,2.2c-1.2,0.3-2-0.2-2.4-1.3c-0.2-0.5-0.3-1-0.4-1.5c-1.4-5.1-3.5-10-6.1-14.6&#10;&#9;c-0.3-0.6-0.5-1-1.3-0.5c-3.1,1.9-5.3,6.1-4.7,9.8c0.8,5.2,3.6,9.1,8.1,11.8c3.5,2.1,7.2,3.7,10.5,6.2c0.6,0.5,0.8,0.4,0.9-0.4&#10;&#9;c0.4-3.5,1.4-6.9,2.4-10.3C940.8,629.9,941.2,628.2,941.2,626.8z" style="fill: rgb(36, 154, 75);" transform="matrix(1.2658737897872925, 0, 0, 1.2658737897872925, -191.00262850776582, -209.0258174977912)"/>
<path class="st2" d="M688.5,885.6c-0.1-4.8,0.4-9.6,1.7-14.3c3.2-11.5,10.9-18.3,22.2-21.4c3.2-0.9,6.4-1.4,9.6-1.6&#10;&#9;c0.9-0.1,1.4,0.1,1.4,1.2c-0.1,7.3-1.3,14.4-5,20.8c-4.3,7.6-11.3,11.5-19.4,13.7c-2.7,0.8-5.5,1-8.3,1.6&#10;&#9;C690.1,885.6,689.3,885.6,688.5,885.6z" style="fill: rgb(107, 61, 52);" transform="matrix(1.2658737897872925, 0, 0, 1.2658737897872925, -194.81466950540388, -226.88066809078595)"/>
<g transform="matrix(1, 0, 0, 1, 115.31435367349724, 1.9060230981577035)"><path class="st3" d="M776.4,94.4c0.9,0.8,1.1,1.8,1.1,3c0,12.4,0,24.8,0,37.1c0,0.4,0,0.9,0,1.3c-0.2,1.1-0.9,1.6-1.9,1.6&#10;&#9;s-1.6-0.5-1.9-1.4c-0.1-0.5-0.1-1-0.1-1.4c0-12.4,0-24.9,0-37.3c0-1.2,0.3-2.2,1.3-2.9C775.3,94.4,775.8,94.4,776.4,94.4z" style="fill: rgb(237, 192, 98);" transform="matrix(1.1522083282470703, 0, 0, 1.1522083282470703, -110.85172271728513, -90.00409698486328)"/><path class="st3" d="M755.8,176.5c0.1-11,8.9-19.7,20-19.6c10.8,0.1,19.6,8.9,19.5,19.7c0,10.9-9,19.8-19.9,19.7&#10;&#9;C764.5,196.3,755.7,187.3,755.8,176.5z" style="fill: rgb(237, 192, 98);" transform="matrix(1.1522083282470703, 0, 0, 1.1522083282470703, -110.85172271728513, -90.00409698486328)"/><path class="st3" d="M714.9,178.5c-6.3,0-12.5,0-18.8,0c-1.8,0-2.7-0.7-2.7-2s0.9-2,2.8-2c12.5,0,25,0,37.5,0c0.2,0,0.4,0,0.6,0&#10;&#9;c1.3,0.1,2.3,1,2.2,2.1c-0.1,1.3-0.9,1.9-2.2,1.9c-3.7,0-7.4,0-11.1,0C720.4,178.5,717.7,178.5,714.9,178.5z" style="fill: rgb(237, 192, 98);" transform="matrix(1.1522083282470703, 0, 0, 1.1522083282470703, -110.85172271728513, -90.00409698486328)"/><path class="st3" d="M836,178.5c-6.3,0-12.5,0-18.8,0c-0.9,0-1.7,0-2.3-0.8c-0.7-1.1-0.2-2.6,1.1-3c0.3-0.1,0.6-0.1,0.9-0.1&#10;&#9;c12.8,0,25.6,0,38.4,0c1.3,0,2.2,0.6,2.2,2s-0.9,1.9-2.2,1.9C848.9,178.5,842.5,178.5,836,178.5z" style="fill: rgb(237, 192, 98);" transform="matrix(1.1522083282470703, 0, 0, 1.1522083282470703, -110.85172271728513, -90.00409698486328)"/><path class="st3" d="M777.5,237.3c0,6.3,0,12.6,0,19c0,1.7-0.8,2.6-2.3,2.3c-1.3-0.2-1.7-1.1-1.7-2.3c0-3.5,0-7,0-10.4&#10;&#9;c0-9.2,0-18.3,0-27.5c0-1.3,0.2-2.4,1.8-2.6c1.4-0.2,2.2,0.6,2.2,2.3c0,4.1,0,8.1,0,12.2C777.5,232.6,777.5,234.9,777.5,237.3z" style="fill: rgb(237, 192, 98);" transform="matrix(1.1522083282470703, 0, 0, 1.1522083282470703, -110.85172271728513, -90.00409698486328)"/><path class="st3" d="M724.1,230c-1.6,0-2.5-1.6-1.7-2.9c0.3-0.5,0.7-0.8,1-1.2c6.1-6.1,12.2-12.2,18.3-18.3c0.3-0.3,0.7-0.7,1.1-0.9&#10;&#9;c0.9-0.5,1.8-0.4,2.5,0.3s0.7,1.5,0.2,2.4c-0.2,0.3-0.4,0.5-0.6,0.7c-6.3,6.3-12.7,12.7-19,19C725.3,229.6,724.8,230,724.1,230z" style="fill: rgb(237, 192, 98);" transform="matrix(1.1522083282470703, 0, 0, 1.1522083282470703, -110.85172271728513, -90.00409698486328)"/><path class="st3" d="M805.3,144.8c-0.1-0.7,0.4-1.3,0.9-1.8c6.3-6.3,12.7-12.7,19-19c1.2-1.2,2.4-1.3,3.2-0.4s0.7,2.1-0.4,3.3&#10;&#9;c-6.3,6.3-12.6,12.6-18.9,18.9c-0.7,0.7-1.5,1.4-2.7,0.8C805.7,146.3,805.3,145.7,805.3,144.8z" style="fill: rgb(237, 192, 98);" transform="matrix(1.1522083282470703, 0, 0, 1.1522083282470703, -110.85172271728513, -90.00409698486328)"/><path class="st3" d="M722,125.1c0.1-1.6,1.6-2.5,2.9-1.7c0.4,0.2,0.8,0.6,1.1,0.9c6.2,6.2,12.4,12.4,18.5,18.5&#10;&#9;c0.4,0.4,0.8,0.8,1,1.2c0.4,0.8,0.2,1.6-0.4,2.2c-0.6,0.6-1.4,0.8-2.2,0.3c-0.2-0.1-0.5-0.3-0.6-0.5c-6.5-6.5-13-13-19.6-19.6&#10;&#9;C722.3,126.1,722,125.6,722,125.1z" style="fill: rgb(237, 192, 98);" transform="matrix(1.1522083282470703, 0, 0, 1.1522083282470703, -110.85172271728513, -90.00409698486328)"/><path class="st3" d="M828.9,227.9c0,1.7-1.5,2.6-2.9,1.8c-0.2-0.1-0.4-0.3-0.6-0.5c-6.5-6.5-12.9-12.9-19.4-19.4&#10;&#9;c-0.8-0.8-1-1.8-0.3-2.7c0.6-0.9,1.5-0.9,2.4-0.5c0.3,0.1,0.6,0.4,0.9,0.7c6.4,6.4,12.7,12.7,19.1,19.1&#10;&#9;C828.6,226.8,829,227.3,828.9,227.9z" style="fill: rgb(237, 192, 98);" transform="matrix(1.1522083282470703, 0, 0, 1.1522083282470703, -110.85172271728513, -90.00409698486328)"/></g>
<path class="st5" d="M560.2,261.8c-25.7,0-51.4,0-77,0c-2.2,0-2.2,0-1.9-2.2c1.4-13,10.1-22.5,23-24.3c10.6-1.5,19.2,2.4,25.7,10.9&#10;&#9;c0.2,0.2,0.3,0.5,0.5,0.7s0.5,0.7,0.6,0.6c0.5-0.1,0.3-0.6,0.3-1c0.4-12,4.3-22.7,11.9-32c11.7-14.2,26.8-21.1,45.2-20.1&#10;&#9;c24.9,1.4,44.6,18.5,49.9,42.9c1.1,4.9,1.2,9.9,1.2,14.9c0,2.7-0.1,5.4,0,8c0,1.2-0.2,1.6-1.5,1.5c-3.8-0.1-7.5,0-11.3,0&#10;&#9;C604.5,261.8,582.3,261.8,560.2,261.8z" style="fill: rgb(73, 190, 254);" transform="matrix(0.7732654213905334, 0, 0, 0.7732654213905334, 34.31303166826126, -115.43981239588221)"/>
<path class="st5" d="M869,356.6c-21.4,0-42.8,0-64.2,0c-1.6,0-1.9-0.4-1.8-2c0.6-8.1,6.6-15.5,14.7-17.9c8.2-2.4,17.2,0.5,22.3,7.2&#10;&#9;c0.4,0.5,0.8,1,1.2,1.5c0.5-0.6,0.3-1.3,0.4-1.9c1.5-13.3,13.2-23.9,26.3-24.2c14.5-0.4,26.5,10.3,28.2,23.8&#10;&#9;c0.1,0.8,0.3,1.6,0.4,2.4c0.5-0.6,1-1.2,1.5-1.8c5.5-6.8,14.4-9.4,22.7-6.6c7.9,2.6,13.6,10.1,14,18.1c0.1,1.3-0.3,1.6-1.5,1.6&#10;&#9;C911.8,356.6,890.4,356.6,869,356.6z" style="fill: rgb(73, 190, 254);" transform="matrix(1.2912807464599607, 0, 0, 1.2912807464599607, -449.6567687988281, -331.4993424933918)"/>

<path class="st4" d="M542,419.7c-0.2,4.2-1,8.4-2.3,12.4c-3.2,9.8-10,15.9-19.7,19c-3.8,1.2-7.7,1.9-11.6,2.2&#10;&#9;c-0.7,0-1.2,0.1-1.2-0.9c0.1-9.4,1.9-18.3,8.3-25.7c4.5-5.1,10.5-7.8,17-9.4c2.6-0.7,5.3-1,7.9-1.3c1.2-0.1,1.8,0.1,1.7,1.5&#10;&#9;C541.9,418.3,542,419.1,542,419.7z" style="fill: rgb(36, 154, 75);" transform="matrix(1.2658737897872925, 0, 0, 1.2658737897872925, -191.00262850776582, -209.0258174977912)"/>
<path class="st4" d="M837.2,736.4c-0.1,6.2-1.6,12-4.1,17.7c-0.3,0.7-0.5,1.1-1.4,0.6c-7.7-4.2-14.3-9.6-18-17.8&#10;&#9;c-3.2-7-2.6-14.3-0.7-21.5c0.7-2.6,1.6-5.1,2.7-7.5c0.3-0.6,0.5-1,1.3-0.6c9,5,16.4,11.2,19.4,21.6&#10;&#9;C837,731.2,837.3,733.8,837.2,736.4z" style="fill: rgb(36, 154, 75);" transform="matrix(1.2658737897872925, 0, 0, 1.2658737897872925, -191.00262850776582, -209.0258174977912)"/>
<path class="st2" d="M487.2,689.8c2,0.1,3.7,0.3,5.5,0.8c0.6,0.2,1,0.2,0.7,1c-2.6,7.3-6.5,13.3-14.8,14.9&#10;&#9;c-3.6,0.7-7.2,0.4-10.8-0.4c-0.6-0.1-1.1-0.3-0.9-1.1c1.2-7,8.4-14,15.4-15C484,689.8,485.7,689.5,487.2,689.8z" style="fill: rgb(107, 61, 52);" transform="matrix(1.2658737897872925, 0, 0, 1.2658737897872925, -191.00262850776582, -209.0258174977912)"/>
<path class="st2" d="M476.1,522.8c5,0.4,4.8-0.8,3.4,4.3c-1.8,6.5-5.4,11.6-12.2,13.7c-3.4,1-6.8,1.3-10.3,0.9c-1-0.1-1.2-0.5-1-1.4&#10;&#9;c2.1-10.1,7.6-17,19-17.4C475.3,522.9,475.8,522.9,476.1,522.8z" style="fill: rgb(107, 61, 52);" transform="matrix(1.2658737897872925, 0, 0, 1.2658737897872925, -191.00262850776582, -209.0258174977912)"/>
<path class="st4" d="M593.5,747.2c0,11.1-5.7,17.6-17.5,20.2c-1.3,0.3-1.2-0.6-1.2-1.3c-0.9-11.7,3.2-19.3,14.8-22.6&#10;&#9;c4.2-1.2,3.6-1.7,3.9,2.9C593.5,746.6,593.5,746.9,593.5,747.2z" style="fill: rgb(36, 154, 75);" transform="matrix(1.2658737897872925, 0, 0, 1.2658737897872925, -191.00262850776582, -209.0258174977912)"/>
<path class="st4" d="M814.1,413.3c-3.3-0.1-6.2-0.8-8.9-2.5c-3.4-2.2-6-5.1-8.1-8.6c-0.4-0.7-0.5-1,0.4-1.4&#10;&#9;c11.5-5.4,21-3.4,28.2,8.2c0.4,0.7,0.5,1.1-0.4,1.4C821.8,412.1,818,413.2,814.1,413.3z" style="fill: rgb(36, 154, 75);" transform="matrix(1.2658737897872925, 0, 0, 1.2658737897872925, -191.00262850776582, -209.0258174977912)"/>
<path class="st2" d="M586.6,327c-6.5,0-11.2-3.3-14.8-8.2c-3.2-4.3-3.6-3.7,1.6-5.6c10.6-3.9,18.6-0.5,24.9,9.5&#10;&#9;c0.5,0.8,0.4,1.1-0.4,1.6C594.6,325.9,590.2,327,586.6,327z" style="fill: rgb(107, 61, 52);" transform="matrix(1.223179328131948, 0.32599000751579504, -0.32599000751579504, 1.223179328131948, -117.25064959005994, -141.80599213453044)"/>
<path class="st2" d="M563.7,801.2c1.8-0.1,3.5,0.2,5.3,0.5c8.7,1.8,12.8,7.9,14.7,16c0.7,3.2,0.7,3.2-2.6,3.1&#10;&#9;c-2.6,0-5.1-0.4-7.6-1.1c-7.2-2.2-10.7-7.5-12.6-14.4c-0.1-0.2-0.1-0.4-0.1-0.6C560,800.6,559.3,801.3,563.7,801.2z" style="fill: rgb(107, 61, 52);" transform="matrix(1.2658737897872925, 0, 0, 1.2658737897872925, -191.00262850776582, -209.0258174977912)"/>
<path class="st2" d="M873,483.1c-1,0-2,0-3.1,0c-0.7,0-1.1-0.3-0.9-1.1c1.4-6.7,4-12.6,10.5-15.8c4.1-2,8.4-2.3,12.9-1.9&#10;&#9;c0.6,0.1,1.2,0,1,1c-1.3,6.1-3.5,11.6-9.1,15.1C880.9,482.5,877,483.2,873,483.1z" style="fill: rgb(107, 61, 52);" transform="matrix(1.2658737897872925, 0, 0, 1.2658737897872925, -191.00262850776582, -209.0258174977912)"/>
<path class="st4" d="M850.7,820.2c-5.1-0.1-4.3,0-3.2-4.1c1.6-6,4.7-10.9,10.8-13.4c3.9-1.6,7.9-1.7,12-1.5c0.9,0.1,1,0.5,0.9,1.3&#10;&#9;C868.8,814,862.6,820.2,850.7,820.2z" style="fill: rgb(36, 154, 75);" transform="matrix(1.2658737897872925, 0, 0, 1.2658737897872925, -191.00262850776582, -209.0258174977912)"/>







<path class="st2" d="M703.3,405.6c-6.4,0-11.6-5-11.6-11.2s5.2-11.3,11.6-11.3c6.4,0,11.6,5.1,11.6,11.3&#10;&#9;C714.9,400.6,709.8,405.6,703.3,405.6z" style="fill: rgb(107, 61, 52);" transform="matrix(1.2658737897872925, 0, 0, 1.2658737897872925, -191.00262850776582, -209.0258174977912)"/>
<path class="st1" d="M729.4,460.4c-30,0.6-54.3,25.4-54.3,55.4c0,54.4,64.9,97.6,92.7,113.7c1.8,1.1,3.9,1.6,6,1.6l0,0&#10;&#9;c3.1,0,6.1-1.2,8.4-3.4c2.4-2.3,3.7-5.4,3.7-8.7V516.9C785.9,485.4,760.5,459.8,729.4,460.4z" style="fill: rgb(232, 56, 74); stroke: rgb(107, 61, 52); stroke-width: 4;" transform="matrix(1.2658737897872925, 0, 0, 1.2658737897872925, -191.00262850776582, -209.0258174977912)"/>
<path d="M 296.4200134277344 155.20001220703125 C 296.6000061035156 155.20001220703125 296.7533264160156 155.2633514404297 296.8800048828125 155.3900146484375 C 297.00665283203125 155.5166778564453 297.07000732421875 155.67001342773438 297.07000732421875 155.8500213623047 L 297.07000732421875 171.3500213623047 C 297.07000732421875 171.53001403808594 297.00665283203125 171.683349609375 296.8800048828125 171.8100128173828 C 296.7533264160156 171.93667602539062 296.6000061035156 172.00001525878906 296.4200134277344 172.00001525878906 L 295.44000244140625 172.00001525878906 C 295.26666259765625 172.00001525878906 295.11334228515625 171.93667602539062 294.9800109863281 171.8100128173828 C 294.85333251953125 171.683349609375 294.7900085449219 171.53001403808594 294.7900085449219 171.3500213623047 L 294.7900085449219 164.58001708984375 L 286.3399963378906 164.58001708984375 L 286.3399963378906 171.3500213623047 C 286.3399963378906 171.53001403808594 286.27667236328125 171.683349609375 286.1499938964844 171.8100128173828 C 286.0233459472656 171.93667602539062 285.8733215332031 172.00001525878906 285.70001220703125 172.00001525878906 L 284.7099914550781 172.00001525878906 C 284.5366516113281 172.00001525878906 284.38665771484375 171.9400177001953 284.260009765625 171.8200225830078 C 284.1266784667969 171.70001220703125 284.05999755859375 171.54335021972656 284.05999755859375 171.3500213623047 L 284.05999755859375 155.8500213623047 C 284.05999755859375 155.67001342773438 284.1266784667969 155.5166778564453 284.260009765625 155.3900146484375 C 284.38665771484375 155.2633514404297 284.5366516113281 155.20001220703125 284.7099914550781 155.20001220703125 L 285.70001220703125 155.20001220703125 C 285.8733215332031 155.20001220703125 286.0233459472656 155.2633514404297 286.1499938964844 155.3900146484375 C 286.27667236328125 155.5166778564453 286.3399963378906 155.67001342773438 286.3399963378906 155.8500213623047 L 286.3399963378906 162.42001342773438 L 294.7900085449219 162.42001342773438 L 294.7900085449219 155.8500213623047 C 294.7900085449219 155.67001342773438 294.85333251953125 155.5166778564453 294.9800109863281 155.3900146484375 C 295.11334228515625 155.2633514404297 295.26666259765625 155.20001220703125 295.44000244140625 155.20001220703125 L 296.4200134277344 155.20001220703125 ZM 305.8544616699219 159.28001403808594 C 307.5677795410156 159.28001403808594 308.921142578125 159.82334899902344 309.9144592285156 160.91001892089844 C 310.901123046875 161.99668884277344 311.39447021484375 163.4766845703125 311.39447021484375 165.3500213623047 L 311.39447021484375 166.00001525878906 C 311.39447021484375 166.17335510253906 311.33111572265625 166.32667541503906 311.2044677734375 166.46002197265625 C 311.0777893066406 166.58668518066406 310.92779541015625 166.65000915527344 310.75445556640625 166.65000915527344 L 302.49444580078125 166.65000915527344 L 302.49444580078125 166.79000854492188 C 302.5278015136719 167.8500213623047 302.85113525390625 168.6800079345703 303.4644470214844 169.28001403808594 C 304.08447265625 169.88002014160156 304.8811340332031 170.1800079345703 305.8544616699219 170.1800079345703 C 306.6544494628906 170.1800079345703 307.27447509765625 170.07334899902344 307.7144470214844 169.86001586914062 C 308.1544494628906 169.65335083007812 308.5511169433594 169.36001586914062 308.9044494628906 168.98001098632812 C 309.0311279296875 168.8466796875 309.1477966308594 168.75668334960938 309.25445556640625 168.71002197265625 C 309.3544616699219 168.66334533691406 309.49444580078125 168.6400146484375 309.6744689941406 168.6400146484375 L 310.39447021484375 168.6400146484375 C 310.58111572265625 168.6400146484375 310.7411193847656 168.70335388183594 310.87445068359375 168.83001708984375 C 311.0011291503906 168.95668029785156 311.0544738769531 169.11001586914062 311.0344543457031 169.29000854492188 C 310.9744567871094 169.7233428955078 310.7411193847656 170.16668701171875 310.33447265625 170.62001037597656 C 309.921142578125 171.07334899902344 309.33447265625 171.45668029785156 308.574462890625 171.77001953125 C 307.814453125 172.08334350585938 306.9078063964844 172.24002075195312 305.8544616699219 172.24002075195312 C 304.8277893066406 172.24002075195312 303.9144592285156 172.0033416748047 303.1144714355469 171.53001403808594 C 302.314453125 171.0566864013672 301.6811218261719 170.40667724609375 301.2144470214844 169.58001708984375 C 300.7411193847656 168.74668884277344 300.4544677734375 167.8100128173828 300.3544616699219 166.77001953125 C 300.3277893066406 166.29000854492188 300.314453125 165.92001342773438 300.314453125 165.66001892089844 C 300.314453125 165.40667724609375 300.3277893066406 165.04000854492188 300.3544616699219 164.5600128173828 C 300.4544677734375 163.56668090820312 300.7411193847656 162.67001342773438 301.2144470214844 161.87001037597656 C 301.6811218261719 161.07000732421875 302.3111267089844 160.4400177001953 303.1044616699219 159.98001098632812 C 303.8977966308594 159.5133514404297 304.814453125 159.28001403808594 305.8544616699219 159.28001403808594 M 309.2344665527344 164.63002014160156 L 309.2344665527344 164.5600128173828 C 309.2344665527344 163.58668518066406 308.92779541015625 162.8066864013672 308.314453125 162.2200164794922 C 307.7011413574219 161.6333465576172 306.8811340332031 161.3400115966797 305.8544616699219 161.3400115966797 C 304.92779541015625 161.3400115966797 304.14111328125 161.63668823242188 303.49444580078125 162.23001098632812 C 302.84112548828125 162.82334899902344 302.5077819824219 163.6000213623047 302.49444580078125 164.5600128173828 L 302.49444580078125 164.63002014160156 L 309.2344665527344 164.63002014160156 ZM 316.4776306152344 171.3500213623047 C 316.4776306152344 171.53001403808594 316.4142761230469 171.683349609375 316.2876281738281 171.8100128173828 C 316.16094970703125 171.93667602539062 316.0109558105469 172.00001525878906 315.8376159667969 172.00001525878906 L 314.9476318359375 172.00001525878906 C 314.7676086425781 172.00001525878906 314.6142883300781 171.93667602539062 314.48760986328125 171.8100128173828 C 314.3609619140625 171.683349609375 314.297607421875 171.53001403808594 314.297607421875 171.3500213623047 L 314.297607421875 155.61001586914062 C 314.297607421875 155.43002319335938 314.3609619140625 155.2766876220703 314.48760986328125 155.15000915527344 C 314.6142883300781 155.02334594726562 314.7676086425781 154.96002197265625 314.9476318359375 154.96002197265625 L 315.8376159667969 154.96002197265625 C 316.0109558105469 154.96002197265625 316.16094970703125 155.02334594726562 316.2876281738281 155.15000915527344 C 316.4142761230469 155.2766876220703 316.4776306152344 155.43002319335938 316.4776306152344 155.61001586914062 L 316.4776306152344 171.3500213623047 ZM 322.2623596191406 171.3500213623047 C 322.2623596191406 171.53001403808594 322.1990051269531 171.683349609375 322.0723571777344 171.8100128173828 C 321.9456787109375 171.93667602539062 321.7956848144531 172.00001525878906 321.6223449707031 172.00001525878906 L 320.73236083984375 172.00001525878906 C 320.5523376464844 172.00001525878906 320.3990173339844 171.93667602539062 320.2723388671875 171.8100128173828 C 320.14569091796875 171.683349609375 320.08233642578125 171.53001403808594 320.08233642578125 171.3500213623047 L 320.08233642578125 155.61001586914062 C 320.08233642578125 155.43002319335938 320.14569091796875 155.2766876220703 320.2723388671875 155.15000915527344 C 320.3990173339844 155.02334594726562 320.5523376464844 154.96002197265625 320.73236083984375 154.96002197265625 L 321.6223449707031 154.96002197265625 C 321.7956848144531 154.96002197265625 321.9456787109375 155.02334594726562 322.0723571777344 155.15000915527344 C 322.1990051269531 155.2766876220703 322.2623596191406 155.43002319335938 322.2623596191406 155.61001586914062 L 322.2623596191406 171.3500213623047 ZM 336.6670837402344 164.63002014160156 C 336.7004089355469 164.9833526611328 336.7170715332031 165.36668395996094 336.7170715332031 165.78001403808594 C 336.7170715332031 166.16668701171875 336.7004089355469 166.53668212890625 336.6670837402344 166.8900146484375 C 336.5204162597656 168.52334594726562 335.95709228515625 169.82334899902344 334.9770812988281 170.79000854492188 C 333.99041748046875 171.75668334960938 332.6570739746094 172.24002075195312 330.9770812988281 172.24002075195312 C 329.2970886230469 172.24002075195312 327.9670715332031 171.75668334960938 326.9870910644531 170.79000854492188 C 326.0003967285156 169.82334899902344 325.4337463378906 168.52334594726562 325.2870788574219 166.8900146484375 C 325.27374267578125 166.71002197265625 325.26708984375 166.3400115966797 325.26708984375 165.78001403808594 C 325.26708984375 165.19334411621094 325.27374267578125 164.8100128173828 325.2870788574219 164.63002014160156 C 325.42041015625 162.99668884277344 325.98040771484375 161.69668579101562 326.9670715332031 160.73001098632812 C 327.9604187011719 159.7633514404297 329.2970886230469 159.28001403808594 330.9770812988281 159.28001403808594 C 332.6570739746094 159.28001403808594 333.9937438964844 159.7633514404297 334.9870910644531 160.73001098632812 C 335.98040771484375 161.69668579101562 336.5404052734375 162.99668884277344 336.6670837402344 164.63002014160156 M 334.4870910644531 164.75001525878906 C 334.3870849609375 163.73001098632812 334.0470886230469 162.90667724609375 333.4670715332031 162.28001403808594 C 332.8804016113281 161.65335083007812 332.0504150390625 161.3400115966797 330.9770812988281 161.3400115966797 C 329.90374755859375 161.3400115966797 329.07708740234375 161.65335083007812 328.4970703125 162.28001403808594 C 327.910400390625 162.90667724609375 327.5704040527344 163.73001098632812 327.4770812988281 164.75001525878906 C 327.45709228515625 164.94334411621094 327.44708251953125 165.28668212890625 327.44708251953125 165.78001403808594 C 327.44708251953125 166.260009765625 327.45709228515625 166.5900115966797 327.4770812988281 166.77001953125 C 327.5704040527344 167.79000854492188 327.910400390625 168.61334228515625 328.4970703125 169.24002075195312 C 329.07708740234375 169.86668395996094 329.90374755859375 170.1800079345703 330.9770812988281 170.1800079345703 C 332.0504150390625 170.1800079345703 332.8804016113281 169.86668395996094 333.4670715332031 169.24002075195312 C 334.0470886230469 168.61334228515625 334.3870849609375 167.79000854492188 334.4870910644531 166.77001953125 C 334.51373291015625 166.41668701171875 334.5270690917969 166.08668518066406 334.5270690917969 165.78001403808594 C 334.5270690917969 165.48001098632812 334.51373291015625 165.13668823242188 334.4870910644531 164.75001525878906 ZM 341.9245910644531 167.25001525878906 C 341.9245910644531 167.42335510253906 341.8612365722656 167.57334899902344 341.7345886230469 167.70001220703125 C 341.60125732421875 167.83334350585938 341.4479064941406 167.90000915527344 341.2745666503906 167.90000915527344 L 340.38458251953125 167.90000915527344 C 340.21124267578125 167.90000915527344 340.0612487792969 167.83334350585938 339.9345703125 167.70001220703125 C 339.8012390136719 167.57334899902344 339.7345886230469 167.42335510253906 339.7345886230469 167.25001525878906 L 339.7345886230469 155.8500213623047 C 339.7345886230469 155.67001342773438 339.8012390136719 155.5166778564453 339.9345703125 155.3900146484375 C 340.0612487792969 155.2633514404297 340.21124267578125 155.20001220703125 340.38458251953125 155.20001220703125 L 341.2745666503906 155.20001220703125 C 341.4479064941406 155.20001220703125 341.60125732421875 155.2633514404297 341.7345886230469 155.3900146484375 C 341.8612365722656 155.5166778564453 341.9245910644531 155.67001342773438 341.9245910644531 155.8500213623047 L 341.9245910644531 167.25001525878906 M 342.1645812988281 171.3500213623047 C 342.1645812988281 171.53001403808594 342.10125732421875 171.683349609375 341.9745788574219 171.8100128173828 C 341.84124755859375 171.93667602539062 341.68792724609375 172.00001525878906 341.51458740234375 172.00001525878906 L 340.14459228515625 172.00001525878906 C 339.97125244140625 172.00001525878906 339.8212585449219 171.93667602539062 339.694580078125 171.8100128173828 C 339.5612487792969 171.683349609375 339.49456787109375 171.53001403808594 339.49456787109375 171.3500213623047 L 339.49456787109375 169.98001098632812 C 339.49456787109375 169.8066864013672 339.5612487792969 169.65667724609375 339.694580078125 169.53001403808594 C 339.8212585449219 169.40335083007812 339.97125244140625 169.3400115966797 340.14459228515625 169.3400115966797 L 341.51458740234375 169.3400115966797 C 341.68792724609375 169.3400115966797 341.84124755859375 169.40335083007812 341.9745788574219 169.53001403808594 C 342.10125732421875 169.65667724609375 342.1645812988281 169.8066864013672 342.1645812988281 169.98001098632812 L 342.1645812988281 171.3500213623047 Z" transform="matrix(3.907162666320801, -0.436784029006958, 0.436784029006958, 3.907162666320801, -853.3922729492188, -282.8916320800781)" style="white-space: pre; fill: rgb(237, 193, 98);"/><g transform="matrix(2.8, 0, 0, 2.8, -0.00000664881918055471, 312.2000041116655)"><path class="st0" d="M164.5,64.3L164.5,64.3" style="fill: rgb(59, 88, 255); stroke: rgb(170, 170, 170); stroke-width: 0.7494; stroke-miterlimit: 2.9976;"/><path d="M42.7,17.2H42c-5.1-0.1-10,2.5-12.5,6.8h-0.1L16.9,45.9h-3v-4.7c0,0,0.1-2.5-1.5-2.3c-0.3,0-0.7,0-0.8,0.1&#10;&#9;C9.2,39.6,5,40.8,5,40.8c-1,0.5-1.8,1.4-1.7,2.5v3.3c0,0-0.1,1,2.2,1.3h9.8c0,0.1-8.3,8.7-8.3,8.7s-3.2,2.6-2.2,13.3&#10;&#9;c0.8,10.7,2.1,36.9,2.1,36.9s-0.1,4.4,2.8,4.6h3.2l0.1,0.1h0.7l0.1-0.1H32c0,0.1,0.1,0.1,0.3,0.1c1-0.1,1.9-0.7,2.5-1.3&#10;&#9;c0.8-0.9,0.7-6,0.7-6s0-0.7,2.1-0.7h69.9c2.1,0,2.1,0.7,2.1,0.7s-0.3,5,0.7,6c0.7,0.7,1.5,1,2.5,1.3c0.1,0,0.3,0,0.3-0.1h18.3&#10;&#9;l0.3,0.1h0.7l0.1-0.1h3c3-0.1,2.8-4.6,2.8-4.6s1.1-26.3,2.1-36.9c0.8-10.7-2.1-13.3-2.1-13.3s-8.3-8.7-8.3-8.9h9.7&#10;&#9;c2.5-0.1,2.2-1.3,2.2-1.3v-3.3c0.1-1-0.7-2.1-1.7-2.5c0,0-4.2-1-6.5-1.8c-0.3-0.1-0.6-0.1-0.7-0.1c-1.8-0.1-1.5,2.3-1.5,2.3v4.7&#10;&#9;h-3.2l-12.6-21.9l0,0c-2.5-4.3-7.5-6.9-12.6-6.8h-0.7c-8,0.3-16.6,0.5-25.2,0.5h-9.3C59.4,17.7,50.8,17.5,42.7,17.2L42.7,17.2z&#10;&#9; M54.8,91c-1.7,0-3-1.2-3-2.7l0,0l0,0c0-1.6,1.4-2.9,3-2.9h35.6c1.7,0,2.9,1.3,2.9,2.9l0,0c0,1.6-1.4,2.9-3,2.9l0,0L54.8,91L54.8,91&#10;&#9;z M49.5,78.6c-1.9,0-2.6-1.8-3.5-3.5l-4.8-9c-1-1.7,1.7-3.5,3.5-3.5h55.8c1.9,0.1,4.4,1.8,3.5,3.5l-4.8,9c-0.8,1.7-1.7,3.5-3.5,3.5&#10;&#9;H49.5z M107.4,71.7c0.6-2.2,1.1-5.2,2.6-6.1c2.1-2.2,9.6-4.6,15-4.6h0.7c4,0.1,12.1,4.2,7.5,8.3c-1.4,1.3-3.2,2.1-5,2.5L107.4,71.7z&#10;&#9; M72.9,103.5L72.9,103.5 M18.2,74.4c-1.8-0.4-3.6-1.2-5-2.5c-4.6-4.1,3.5-8.2,7.5-8.3h0.7c5.4,0,12.9,2.4,15,4.6&#10;&#9;c1.5,0.9,2,3.9,2.6,6.1L18.2,74.4z" style="fill: rgb(67, 255, 54);"/><g>
	<path class="st1" d="M415.4,15.5h32.8V89h51.2v24h-84V15.5z" style="fill: rgb(48, 255, 69);"/>
	<path class="st2" d="M381.6,75.8l-11.7-35l-11.6,35H381.6z M388.4,96.9h-37.3L346,113h-33.5l39.9-97.4h35.8l39.9,97.4h-34.4&#10;&#9;&#9;L388.4,96.9z" style="fill: rgb(206, 43, 255);"/>
	<path class="st3" d="M233.3,15.5h87.9v20.8h-55v15.5h51.1v19.9h-51.1v19.2h56.6V113h-89.5L233.3,15.5L233.3,15.5z" style="fill: rgb(54, 255, 80);"/>
	<path class="st4" d="M147.4,15.5h48.7c9.6,0,17.4,1.2,23.3,3.6c5.9,2.4,10.8,5.8,14.7,10.3s6.7,9.7,8.4,15.6s2.6,12.2,2.6,18.9&#10;&#9;&#9;c0,10.4-1.3,18.5-3.9,24.2c-2.6,5.7-6.2,10.5-10.8,14.4s-9.5,6.5-14.8,7.7c-7.2,1.8-13.7,2.7-19.6,2.7h-48.7V15.5H147.4z&#10;&#9;&#9; M180.2,37.6v53.2h8c6.9,0,11.7-0.7,14.6-2.1c2.9-1.4,5.2-3.8,6.8-7.3s2.5-9.1,2.5-16.9c0-10.3-1.8-17.4-5.5-21.2&#10;&#9;&#9;s-9.8-5.7-18.3-5.7H180.2z" style="fill: rgb(206, 43, 255);"/>
<path d="M 437.1325988769531 68.23490142822266 L 437.1325988769531 68.23490142822266" style="fill: rgb(48, 255, 69); fill-opacity: 1; stroke: rgb(0, 0, 0); stroke-opacity: 1; stroke-width: 0; paint-order: fill;"/></g><path d="M 87.55531311035156 32.974945068359375 L 87.55531311035156 32.974945068359375" style="fill: rgb(206, 43, 255); fill-opacity: 1; stroke: rgb(0, 0, 0); stroke-opacity: 1; stroke-width: 0; paint-order: fill;"/><path d="M 288.53704833984375 25.922954559326172 L 288.53704833984375 25.922954559326172" style="fill: rgb(206, 43, 255); fill-opacity: 1; stroke: rgb(0, 0, 0); stroke-opacity: 1; stroke-width: 0; paint-order: fill;"/></g><rect id="ee-background" x="0" y="0" width="1400" height="980" style="fill: white; fill-opacity: 1; pointer-events: none;"/><g transform="matrix(2.8, 0, 0, 2.8, -0.00000664881918055471, 312.1999730056234)"><path class="st0" d="M164.5,64.3L164.5,64.3" style="fill: rgb(11, 46, 77); stroke: rgb(170, 170, 170); stroke-width: 0.7494; stroke-miterlimit: 2.9976;"/><path d="M42.7,17.2H42c-5.1-0.1-10,2.5-12.5,6.8h-0.1L16.9,45.9h-3v-4.7c0,0,0.1-2.5-1.5-2.3c-0.3,0-0.7,0-0.8,0.1&#10;&#9;C9.2,39.6,5,40.8,5,40.8c-1,0.5-1.8,1.4-1.7,2.5v3.3c0,0-0.1,1,2.2,1.3h9.8c0,0.1-8.3,8.7-8.3,8.7s-3.2,2.6-2.2,13.3&#10;&#9;c0.8,10.7,2.1,36.9,2.1,36.9s-0.1,4.4,2.8,4.6h3.2l0.1,0.1h0.7l0.1-0.1H32c0,0.1,0.1,0.1,0.3,0.1c1-0.1,1.9-0.7,2.5-1.3&#10;&#9;c0.8-0.9,0.7-6,0.7-6s0-0.7,2.1-0.7h69.9c2.1,0,2.1,0.7,2.1,0.7s-0.3,5,0.7,6c0.7,0.7,1.5,1,2.5,1.3c0.1,0,0.3,0,0.3-0.1h18.3&#10;&#9;l0.3,0.1h0.7l0.1-0.1h3c3-0.1,2.8-4.6,2.8-4.6s1.1-26.3,2.1-36.9c0.8-10.7-2.1-13.3-2.1-13.3s-8.3-8.7-8.3-8.9h9.7&#10;&#9;c2.5-0.1,2.2-1.3,2.2-1.3v-3.3c0.1-1-0.7-2.1-1.7-2.5c0,0-4.2-1-6.5-1.8c-0.3-0.1-0.6-0.1-0.7-0.1c-1.8-0.1-1.5,2.3-1.5,2.3v4.7&#10;&#9;h-3.2l-12.6-21.9l0,0c-2.5-4.3-7.5-6.9-12.6-6.8h-0.7c-8,0.3-16.6,0.5-25.2,0.5h-9.3C59.4,17.7,50.8,17.5,42.7,17.2L42.7,17.2z&#10;&#9; M54.8,91c-1.7,0-3-1.2-3-2.7l0,0l0,0c0-1.6,1.4-2.9,3-2.9h35.6c1.7,0,2.9,1.3,2.9,2.9l0,0c0,1.6-1.4,2.9-3,2.9l0,0L54.8,91L54.8,91&#10;&#9;z M49.5,78.6c-1.9,0-2.6-1.8-3.5-3.5l-4.8-9c-1-1.7,1.7-3.5,3.5-3.5h55.8c1.9,0.1,4.4,1.8,3.5,3.5l-4.8,9c-0.8,1.7-1.7,3.5-3.5,3.5&#10;&#9;H49.5z M107.4,71.7c0.6-2.2,1.1-5.2,2.6-6.1c2.1-2.2,9.6-4.6,15-4.6h0.7c4,0.1,12.1,4.2,7.5,8.3c-1.4,1.3-3.2,2.1-5,2.5L107.4,71.7z&#10;&#9; M72.9,103.5L72.9,103.5 M18.2,74.4c-1.8-0.4-3.6-1.2-5-2.5c-4.6-4.1,3.5-8.2,7.5-8.3h0.7c5.4,0,12.9,2.4,15,4.6&#10;&#9;c1.5,0.9,2,3.9,2.6,6.1L18.2,74.4z" style="fill: rgb(189, 66, 255);"/><g>
	<path class="st1" d="M415.4,15.5h32.8V89h51.2v24h-84V15.5z" style="fill: rgb(196, 46, 255);"/>
	<path class="st2" d="M381.6,75.8l-11.7-35l-11.6,35H381.6z M388.4,96.9h-37.3L346,113h-33.5l39.9-97.4h35.8l39.9,97.4h-34.4&#10;&#9;&#9;L388.4,96.9z" style="fill: rgb(71, 255, 38);"/>
	<path class="st3" d="M233.3,15.5h87.9v20.8h-55v15.5h51.1v19.9h-51.1v19.2h56.6V113h-89.5L233.3,15.5L233.3,15.5z" style="fill: rgb(176, 31, 255);"/>
	<path class="st4" d="M147.4,15.5h48.7c9.6,0,17.4,1.2,23.3,3.6c5.9,2.4,10.8,5.8,14.7,10.3s6.7,9.7,8.4,15.6s2.6,12.2,2.6,18.9&#10;&#9;&#9;c0,10.4-1.3,18.5-3.9,24.2c-2.6,5.7-6.2,10.5-10.8,14.4s-9.5,6.5-14.8,7.7c-7.2,1.8-13.7,2.7-19.6,2.7h-48.7V15.5H147.4z&#10;&#9;&#9; M180.2,37.6v53.2h8c6.9,0,11.7-0.7,14.6-2.1c2.9-1.4,5.2-3.8,6.8-7.3s2.5-9.1,2.5-16.9c0-10.3-1.8-17.4-5.5-21.2&#10;&#9;&#9;s-9.8-5.7-18.3-5.7H180.2z" style="fill: rgb(41, 255, 33);"/>
<path d="M 179.7349090576172 -11.351845741271973" style="fill: rgb(41, 255, 33); fill-opacity: 1; stroke: rgb(0, 0, 0); stroke-opacity: 1; stroke-width: 0; paint-order: fill;"/></g><path d="M 74.45875549316406 -29.9892520904541" style="fill: rgb(189, 66, 255); fill-opacity: 1; stroke: rgb(0, 0, 0); stroke-opacity: 1; stroke-width: 0; paint-order: fill;"/><path d="M 64.38448333740234 44.56037139892578 L 64.38448333740234 44.56037139892578" style="fill: rgb(189, 66, 255); fill-opacity: 1; stroke: rgb(0, 0, 0); stroke-opacity: 1; stroke-width: 0; paint-order: fill;"/></g></svg>